<svg t="1725333536096" class="icon" viewBox="0 0 1024 1024" version="1.1" xmlns="http://www.w3.org/2000/svg" p-id="7431" width="200" height="200"><path d="M864.716787 430.256608c-37.012341 55.632845-81.934352 93.951504-130.482186 112.261849 8.427818-13.830671 16.590481-28.544385 24.368789-44.101001 48.851912-97.741529 80.119617-220.868684 90.652869-354.07419h101.310186c-4.598872 108.356275-34.679457 208.973163-85.849658 285.913342zM578.498151 621.817064a27.953258 27.953258 0 0 0-3.791242 1.914473c-20.634715 10.248636-41.824067 15.573645-63.261547 15.573645-21.419235 0-42.604939-5.325009-63.220192-15.573645a28.880086 28.880086 0 0 0-3.828947-1.933934c-22.897053-12.110808-45.022965-30.365202-65.981219-54.392208a29.753398 29.753398 0 0 0-3.714613-4.347095c-20.786754-24.672867-40.328005-55.023473-58.20291-90.752607-53.645393-107.282272-84.604155-248.303793-88.125375-399.862215H794.541729c-3.545546 151.540177-34.522553 292.598187-88.144836 399.862215-17.874905 35.729133-37.435617 66.097984-58.20291 90.752607a28.75359 28.75359 0 0 0-3.734075 4.366556c-20.938792 24.007545-43.084165 42.2814-65.961757 54.392208z m-18.082895 173.780423h-97.936139V691.241659c16.034627 4.218166 32.379413 6.418473 48.966245 6.418472 16.572236 0 32.915806-2.180845 48.969894-6.418472v104.355828z m156.310549 107.339438v48.969894H306.168568v-48.969894c0.042571-27.025212 21.941033-48.923674 48.971111-48.966245h312.634477c27.030078 0.042571 48.927323 21.941033 48.97111 48.966245h-0.019461zM158.177586 430.256608c-51.194527-76.94018-81.26903-177.557068-85.849657-285.913342h101.30532C184.171367 277.548772 215.420827 400.675927 264.290983 498.417456c7.778308 15.556617 15.92151 30.27033 24.36879 44.120462-48.547834-18.329806-93.469845-56.648465-130.482187-112.28131zM980.375793 85.988317H852.534217c0.460982-14.17732 0.707893-28.411807 0.707893-42.722921 0-16.14896-13.046151-29.195111-29.176866-29.195111H198.82913c-16.111254 0-29.158622 13.065612-29.158622 29.176866 0 14.329359 0.246911 28.563846 0.707893 42.722921H42.518581c-16.111254 0-29.176866 13.065612-29.176867 29.196327 0 130.771669 34.175904 254.14695 96.230871 347.408807 61.343425 92.206098 143.068572 145.082783 231.332607 150.237508 20.016829 21.779263 41.168476 39.520374 63.200732 53.066429v129.718344h-48.966245c-59.252586 0.070546-107.268893 48.086852-107.344304 107.339438v48.969894h-2.066513c-15.831503 0.403815-28.450729 13.351445-28.450728 29.186597 0 15.831503 12.619226 28.782782 28.450728 29.186597h531.436649c16.120985 0 29.186597-13.065612 29.186597-29.186597 0-16.120985-13.065612-29.186597-29.186597-29.186597h-2.066512v-48.969894c-0.075411-59.252586-48.091717-107.268893-107.344304-107.339438h-48.966245V665.898604c22.032256-13.546055 43.203364-31.306627 63.220192-53.08589 88.244574-5.154726 169.969721-58.049655 231.313146-150.237508 62.069563-93.261856 96.230871-216.637138 96.230871-347.408807 0-16.130715-13.065612-29.196327-29.176866-29.196327v0.018245z m0 0" fill="#2c2c2c" p-id="7432"></path></svg>
