<svg t="1725333159556" class="icon" viewBox="0 0 1024 1024" version="1.1" xmlns="http://www.w3.org/2000/svg" p-id="5004" width="200" height="200"><path d="M245.294545 284.858182h533.41091a23.738182 23.738182 0 0 0 23.272727-23.272727 23.272727 23.272727 0 0 0-23.272727-23.272728H245.294545a23.272727 23.272727 0 0 0-23.272727 23.272728 23.738182 23.738182 0 0 0 23.272727 23.272727zM778.705455 489.192727H245.294545a23.272727 23.272727 0 0 0-23.272727 23.272728 23.738182 23.738182 0 0 0 23.272727 23.272727h533.41091a23.738182 23.738182 0 0 0 23.272727-23.272727 23.272727 23.272727 0 0 0-23.272727-23.272728zM778.705455 739.141818H245.294545a23.272727 23.272727 0 1 0 0 46.545455h533.41091a23.272727 23.272727 0 1 0 0-46.545455z" fill="#2c2c2c" p-id="5005"></path><path d="M910.894545 46.545455H113.105455a23.272727 23.272727 0 0 0-23.272728 23.272727v889.018182a23.272727 23.272727 0 0 0 23.272728 23.272727h797.78909a23.272727 23.272727 0 0 0 23.272728-23.272727V67.490909a23.272727 23.272727 0 0 0-23.272728-20.945454zM136.378182 93.090909h751.243636v842.472727H136.378182z" fill="#2c2c2c" p-id="5006"></path></svg>
