<svg t="1725333456760" class="icon" viewBox="0 0 1087 1024" version="1.1" xmlns="http://www.w3.org/2000/svg" p-id="6357" width="200" height="200"><path d="M19.199304 0.037119h1023.962881v1023.962881H19.199304z" fill="#2c2c2c" fill-opacity="0" p-id="6358"></path><path d="M19.199304 0.037119h1023.962881v1023.962881H19.199304z" fill="#2c2c2c" fill-opacity="0" p-id="6359"></path><path d="M507.30961 24.612228c-4.159849-5.567798-6.399768 0-6.399768 0L379.890229 1021.312097 510.701487 1024 507.30961 24.612228zM291.957417 815.879544l-9.151669-60.157819-32.126835 49.278214-64.957645-1.919931 41.278503 43.518423-25.983058 57.277923 58.109894-29.566928 43.518422 41.406499-3.071889-62.269742 56.509952-25.599072-64.189673-11.967567h0.063998z m112.955905-370.73856l-65.66162 20.735248-30.526893-58.237889-19.839281 83.004991-70.397448 36.542676 55.805977 12.799536-12.927532 84.156949 54.206035-70.269453 64.189674 19.839281-22.91117-65.277634 48.062258-63.357703zM103.16426 584.527931l-36.606673 49.406209-47.358283 7.871715 28.990949 31.678851-26.75103 54.398028 47.358283-37.50264 33.534784 32.638817 2.303917-52.350103 41.342501-33.598782-43.518422-2.047926 0.639977-50.494169z m87.164841-170.937804l21.311227-26.75103-27.455005 6.91175-14.527473-25.66307-13.119525 39.486568-35.774703 17.791355 24.447114 6.015782-6.079779 35.518713 28.990949-32.574819 28.990949 10.815608-6.783754-31.550857zM315.508563 273.243215l13.823499 7.935712 6.143777-19.903278 21.311227-16.767392-16.767392-2.943894v-15.871424l-17.599362 20.863243-23.679141 3.967857 8.319698 15.679431-14.463476 20.799246 22.91117-13.759501z m595.30642-147.194664S808.930676 60.770917 615.977671 106.593256c0 0 246.519064-23.551146 308.724809 165.178012 0 0 42.878446 191.545056-103.932233 338.675723 0 0-106.236149 118.07572-177.017583 147.130667L549.484081 3.940977s-7.551726-12.41555-7.551726 7.039745v1002.011677s114.74784-40.190543 125.435453-59.709835l-14.975457-124.859474s315.252572-158.266263 379.506243-420.528756c0 0 60.029824-192.953005-121.083611-281.781786v-0.063997z" fill="#2c2c2c" p-id="6360"></path></svg>
