<svg t="1725334324484" class="icon" viewBox="0 0 1024 1024" version="1.1" xmlns="http://www.w3.org/2000/svg" p-id="3475" width="200" height="200"><path d="M94.72 857.6l334.336 132.608 47.104-82.944-255.488-185.856zM987.136 494.592c-23.552-110.08-93.696-243.712-293.888-254.464h-3.584l-1.024 3.584c-4.608 12.288-10.24 24.064-16.896 35.328l-4.608 7.68h9.216c145.92 3.072 235.52 76.288 265.728 218.112 23.552 110.592 2.048 224.768 1.024 229.376l-1.024 5.12 40.96 8.192 5.12 0.512 1.024-5.12c3.072-20.992 22.528-133.12-2.048-248.32zM93.184 504.32c30.208-141.824 119.808-215.04 265.728-218.112h9.216l-4.608-7.68c-6.656-11.264-12.8-23.04-16.896-35.328l-1.536-3.584h-3.584c-200.192 10.752-270.336 144.384-293.888 254.464-25.088 118.272-3.584 235.52-1.024 248.832l1.024 5.12 40.96-8.192 5.12-1.024-1.024-5.12c-1.024-4.608-23.04-118.784 0.512-229.376zM558.08 907.264l47.104 82.944 334.336-132.608-125.952-136.192zM517.12 332.288c82.432 0 149.504-67.072 149.504-149.504s-67.072-149.504-149.504-149.504-149.504 67.072-149.504 149.504c0 82.944 67.072 149.504 149.504 149.504zM540.16 455.168l25.6-72.704h-98.816l25.6 72.704-34.304 281.6 58.368 58.88 57.856-58.88zM318.976 615.936l53.248 168.448 64 46.592-72.192-229.376z" fill="#2c2c2c" p-id="3476"></path></svg>
