<svg t="1725334096976" class="icon" viewBox="0 0 1024 1024" version="1.1" xmlns="http://www.w3.org/2000/svg" p-id="2397" width="200" height="200"><path d="M505.82 401.85a111.86 111.86 0 0 1 58.27 16.3q4.35 2.65 8.43 5.68l17.12-23q-5.13-3.83-10.64-7.19a140.59 140.59 0 0 0-73.19-20.48C428.16 373.15 365 436.33 365 514s63.17 140.84 140.83 140.84S646.66 591.64 646.66 514a140.32 140.32 0 0 0-8.36-47.9q-1.66-4.6-3.64-9.05l-26.23 11.63q1.56 3.52 2.89 7.18a112.16 112.16 0 1 1-105.49-74z" fill="#2c2c2c" p-id="2398"></path><path d="M672.3 330.31a247.38 247.38 0 0 0-166.48-64.21c-136.7 0-247.89 111.2-247.89 247.9s111.2 247.89 247.89 247.89S753.71 650.68 753.71 514a247.7 247.7 0 0 0-34.87-126.84l-24.63 14.7A219.09 219.09 0 0 1 725 514c0 120.86-98.34 219.2-219.2 219.2S286.62 634.85 286.62 514s98.34-219.2 219.2-219.2A218.71 218.71 0 0 1 653 351.56z" fill="#2c2c2c" p-id="2399"></path><path d="M833.89 349L809 363.31a222.37 222.37 0 0 1 22.58 54.09c7.69 28.9 9.26 59.51 9.26 96.59 0 184.72-150.28 335-335 335s-335-150.28-335-335 150.28-335 335-335c81.22 0 146.66 23.32 205.93 73.38l18.52-21.93c-64.75-54.68-136.08-80.15-224.45-80.15-200.54 0-363.7 163.15-363.7 363.69s163.16 363.7 363.7 363.7S869.51 714.53 869.51 514c0-39.33-1.74-72.05-10.21-104a251.57 251.57 0 0 0-25.41-61z" fill="#2c2c2c" p-id="2400"></path><path d="M881 256.72a12 12 0 0 0-13.65-4.26l-40.73 14.28 24.13-39a12 12 0 0 0-0.5-13.34 36.67 36.67 0 0 0-51.16-8.1l-74.7 54.3a36.68 36.68 0 0 0-8.1 51.16l5.8 8-207.25 167.12A28.62 28.62 0 1 0 534.51 514a28.79 28.79 0 0 0-0.57-5.64L739 343l8 11.08a36.31 36.31 0 0 0 23.9 14.61 37.32 37.32 0 0 0 5.84 0.46 36.24 36.24 0 0 0 21.41-7l74.71-54.3a36.65 36.65 0 0 0 8.14-51.13z m-22.16 31.79l-74.71 54.3A12.75 12.75 0 0 1 766.4 340l-30.75-42.32a12.7 12.7 0 0 1 2.8-17.71l74.7-54.3a12.69 12.69 0 0 1 11.76-1.67l-36.45 58.93a12 12 0 0 0 14.15 17.6L864 279a12.68 12.68 0 0 1-5.16 9.51z" fill="#2c2c2c" p-id="2401"></path></svg>
