<svg t="1725334490455" class="icon" viewBox="0 0 1024 1024" version="1.1" xmlns="http://www.w3.org/2000/svg" p-id="4702" width="200" height="200"><path d="M716.8 422.175439l-100.603509 100.603508-97.010526-97.010526 100.603509-100.603509c-62.877193-25.150877-138.329825-12.575439-188.631579 39.522807-50.301754 50.301754-64.673684 125.754386-39.522807 188.631579l-71.859649 71.859649c-26.947368 26.947368-26.947368 70.063158 0 97.010527s70.063158 26.947368 97.010526 0l71.859649-71.859649c62.877193 25.150877 138.329825 12.575439 188.631579-39.522807 50.301754-52.098246 64.673684-125.754386 39.522807-188.631579z" fill="#2c2c2c" p-id="4703"></path><path d="M481.459649 970.105263c0-21.557895-16.168421-41.319298-37.726316-43.115789-197.614035-32.336842-350.315789-206.596491-350.315789-414.989474 0-231.747368 188.631579-418.582456 418.582456-418.582456 89.824561 0 170.666667 28.74386 238.933333 75.452631 17.964912 12.575439 41.319298 10.778947 57.48772-5.389473l1.796491-1.796491c19.761404-17.964912 16.168421-50.301754-7.185965-66.470176C720.392982 37.726316 619.789474 3.592982 510.203509 3.592982 229.950877 3.592982 3.592982 231.747368 3.592982 512c0 253.305263 185.038596 463.494737 427.564913 503.017544 26.947368 3.592982 50.301754-16.168421 50.301754-44.912281zM851.536842 203.003509c-16.168421 16.168421-17.964912 41.319298-3.592982 59.28421 43.115789 57.487719 71.859649 127.550877 80.842105 203.003509 1.796491 23.354386 21.557895 39.522807 44.912281 39.522807 26.947368 0 46.708772-23.354386 44.91228-50.301754-10.778947-91.621053-44.912281-176.05614-98.807017-246.119299-16.168421-21.557895-48.505263-25.150877-68.266667-5.389473zM921.6 600.02807c-35.929825 167.073684-172.463158 298.217544-341.333333 326.961404-21.557895 3.592982-37.726316 21.557895-37.726316 44.91228 0 26.947368 25.150877 48.505263 52.098245 44.912281 206.596491-34.133333 373.670175-192.224561 416.785965-397.024561 5.389474-28.74386-14.37193-53.894737-43.115789-53.894737h-1.796491c-21.557895-1.796491-39.522807 12.575439-44.912281 34.133333z" fill="#2c2c2c" p-id="4704"></path></svg>
